<svg id="icon" viewBox="0 0 60 34" fill="none" xmlns="http://www.w3.org/2000/svg">
    <g fill="#1D1346">
        <path d="M56.9008 13.1405V20.8953H54.2404V15.4495H51.6805V20.8953H49.0201V13.1405H56.9008Z"/>
        <path d="M47.7152 17.2643C47.7503 19.5167 45.9785 21.116 43.4587 21.116C41.0744 21.116 39.0666 19.6401 39.0666 16.0404C39.0666 12.9859 40.974 10.4712 43.7899 10.4198H47.7102L46.4653 12.7185H44.071C43.4785 12.6976 42.8994 12.9027 42.4459 13.2941C41.9925 13.6855 41.697 14.2353 41.6165 14.8371C42.3641 14.1793 43.3216 13.826 44.307 13.8446C45.1954 13.8586 46.0447 14.2219 46.6791 14.8594C47.3134 15.4968 47.6844 16.3597 47.7152 17.2695V17.2643ZM45.0599 17.4443C45.0627 17.1233 44.973 16.8085 44.8018 16.5395C44.6307 16.2705 44.3859 16.0593 44.0981 15.9323C43.8102 15.8053 43.4922 15.7683 43.1839 15.8258C42.8755 15.8832 42.5906 16.0327 42.3649 16.2555C42.1392 16.4782 41.9827 16.7643 41.9151 17.0778C41.8474 17.3913 41.8717 17.7182 41.9847 18.0177C42.0978 18.3171 42.2947 18.5757 42.5506 18.7609C42.8066 18.9462 43.1103 19.0499 43.4235 19.059C43.6353 19.0666 43.8465 19.0305 44.0444 18.9528C44.2423 18.8751 44.423 18.7575 44.5756 18.6068C44.7283 18.4562 44.8498 18.2757 44.933 18.076C45.0162 17.8762 45.0593 17.6615 45.0599 17.4443Z"/>
        <path d="M37.018 18.2318C36.3916 18.6256 35.6697 18.8305 34.9349 18.8232C34.4754 18.7983 34.0427 18.5937 33.726 18.2517C33.4093 17.9097 33.2328 17.4562 33.2328 16.9848C33.2328 16.5134 33.4093 16.0599 33.726 15.7179C34.0427 15.3758 34.4754 15.1713 34.9349 15.1464C35.6683 15.1378 36.3889 15.3429 37.0129 15.7378L38.0168 13.9071C37.1796 13.2445 36.1484 12.8911 35.0905 12.9043C32.4954 12.9043 30.7084 15.0641 30.7084 16.9874C30.7084 19.2346 32.7162 21.1013 35.0754 21.1013C36.1434 21.1135 37.1833 20.7505 38.0219 20.0728L37.018 18.2318Z"/>
    </g>
    <path d="M20.7507 23.4977L16.9057 25.7758L13.3318 32.1112L27.8984 23.4977H20.7507Z" fill="#027C37"/>
    <path d="M9.76257 17.0018L5.91262 19.2748L2.34375 25.6154L16.9053 17.0018H9.76257Z" fill="#954B97"/>
    <path d="M20.7507 10.5019L16.9057 12.78L13.3318 19.1154L27.8984 10.5019H20.7507Z" fill="#DA1945"/>
    <path d="M16.9049 8.22948L13.336 1.88892V32.1107L16.9049 25.7753V8.22948Z" fill="#FBBB25"/>
    <path d="M13.3318 1.88892L16.9049 8.22948L20.7557 10.5024L27.8984 10.5019L13.3318 1.88892Z" fill="#F07F1B"/>
    <path d="M13.3318 14.8835V32.1112L16.9049 25.7753L16.9057 21.2241L13.3318 14.8835Z" fill="#65B330"/>
    <path d="M2.34375 8.38908V25.6154L5.91262 19.2748V14.7245L2.34375 8.38908Z" fill="#5C57A2"/>
    <path d="M13.3318 14.8835L13.3365 14.8891L2.34375 8.38908L5.91262 14.7245L20.7553 23.4974L27.8984 23.4977L13.3318 14.8835Z" fill="#0494D3"/>
</svg>
