<svg id="icon" width="72" height="30" viewBox="0 0 72 30" fill="none" xmlns="http://www.w3.org/2000/svg">
  <g clip-path="url(#clip0_8635_193)">
    <path d="M56.7487 0H15.2513C7.1044 0 0.5 6.71573 0.5 15C0.5 23.2843 7.1044 30 15.2513 30H56.7487C64.8956 30 71.5 23.2843 71.5 15C71.5 6.71573 64.8956 0 56.7487 0Z" fill="#303030"/>
    <path d="M36.9827 10.5569H31.0956V20.118H33.9591V17.546H36.9804C37.6905 17.546 38.382 17.5248 39.0549 17.3053C40.359 16.883 41.3267 15.6985 41.3267 14.0916C41.3267 12.4847 40.3776 11.319 39.0944 10.8589C38.3843 10.597 37.7114 10.5569 36.9804 10.5569H36.9827ZM33.9614 15.2973V12.8669H36.5697C37.122 12.8669 37.4399 12.9283 37.6951 13.0274C38.1499 13.2091 38.3657 13.6291 38.3657 14.0727C38.3657 14.5541 38.1082 15.0165 37.6162 15.177C37.3795 15.2572 37.1034 15.2973 36.5697 15.2973H33.9614Z" fill="white"/>
    <path d="M45.4339 16.6234L46.7961 12.7678H47.0142L48.3763 16.6234H45.4339ZM44.7239 18.7329H49.0701L49.6224 20.118H52.8409L48.9889 10.5569H44.8004L40.9484 20.118H44.1878L44.7215 18.7329H44.7239Z" fill="white"/>
    <path d="M59.8117 10.5569L57.4819 14.9151H57.3822L55.0315 10.5569H51.6946L55.9411 17.5861V20.118H58.9044V17.3455L62.9351 10.5569H59.8117Z" fill="white"/>
    <path d="M9.06726 7.72064H24.9765V15.8566C24.9765 17.9424 23.8813 19.8702 22.1061 20.9132L17.0219 23.8981L11.9377 20.9132C10.1602 19.8702 9.06726 17.9424 9.06726 15.8566V7.72064Z" fill="#FFDD2D"/>
    <path fill-rule="evenodd" clip-rule="evenodd" d="M13.4321 12.0033V14.5328C13.7732 14.1411 14.3905 13.8768 15.0982 13.8768H15.8663V16.8192C15.8663 17.6026 15.6575 18.2869 15.3465 18.6645H18.6904C18.3817 18.2869 18.1729 17.6026 18.1729 16.8216V13.8792H18.941C19.6487 13.8792 20.2683 14.1435 20.6071 14.5352V12.0057H13.4298L13.4321 12.0033Z" fill="#333333"/>
  </g>
  <defs>
    <clipPath id="clip0_8635_193">
      <rect width="71" height="30" fill="white" transform="translate(0.5)"/>
    </clipPath>
  </defs>
</svg>
